<svg id="visual" viewBox="0 0 960 540" width="960" height="540" xmlns="http://www.w3.org/2000/svg" xmlns:xlink="http://www.w3.org/1999/xlink" version="1.1"><rect x="0" y="0" width="960" height="540" fill="#FFFFFF"></rect><defs><linearGradient id="grad1_0" x1="43.8%" y1="0%" x2="100%" y2="100%"><stop offset="14.444444444444446%" stop-color="#ff0066" stop-opacity="1"></stop><stop offset="85.55555555555554%" stop-color="#ff0066" stop-opacity="1"></stop></linearGradient></defs><defs><linearGradient id="grad1_1" x1="43.8%" y1="0%" x2="100%" y2="100%"><stop offset="14.444444444444446%" stop-color="#ff0066" stop-opacity="1"></stop><stop offset="85.55555555555554%" stop-color="#ffa0af" stop-opacity="1"></stop></linearGradient></defs><defs><linearGradient id="grad1_2" x1="43.8%" y1="0%" x2="100%" y2="100%"><stop offset="14.444444444444446%" stop-color="#ffffff" stop-opacity="1"></stop><stop offset="85.55555555555554%" stop-color="#ffa0af" stop-opacity="1"></stop></linearGradient></defs><defs><linearGradient id="grad2_0" x1="0%" y1="0%" x2="56.3%" y2="100%"><stop offset="14.444444444444446%" stop-color="#ff0066" stop-opacity="1"></stop><stop offset="85.55555555555554%" stop-color="#ff0066" stop-opacity="1"></stop></linearGradient></defs><defs><linearGradient id="grad2_1" x1="0%" y1="0%" x2="56.3%" y2="100%"><stop offset="14.444444444444446%" stop-color="#ffa0af" stop-opacity="1"></stop><stop offset="85.55555555555554%" stop-color="#ff0066" stop-opacity="1"></stop></linearGradient></defs><defs><linearGradient id="grad2_2" x1="0%" y1="0%" x2="56.3%" y2="100%"><stop offset="14.444444444444446%" stop-color="#ffa0af" stop-opacity="1"></stop><stop offset="85.55555555555554%" stop-color="#ffffff" stop-opacity="1"></stop></linearGradient></defs><g transform="translate(960, 0)"><path d="M0 513C-48.3 463 -96.6 413 -164.2 396.3C-231.8 379.7 -318.7 396.4 -362.7 362.7C-406.8 329.1 -408 245.3 -425.9 176.4C-443.8 107.6 -478.4 53.8 -513 0L0 0Z" fill="#ffd0d6"></path><path d="M0 342C-32.2 308.7 -64.4 275.3 -109.4 264.2C-154.5 253.1 -212.5 264.2 -241.8 241.8C-271.2 219.4 -272 163.5 -283.9 117.6C-295.9 71.7 -318.9 35.9 -342 0L0 0Z" fill="#ff6a89"></path><path d="M0 171C-16.1 154.3 -32.2 137.7 -54.7 132.1C-77.3 126.6 -106.2 132.1 -120.9 120.9C-135.6 109.7 -136 81.8 -142 58.8C-147.9 35.9 -159.5 17.9 -171 0L0 0Z" fill="#ff0066"></path></g><g transform="translate(0, 540)"><path d="M0 -513C58 -488.8 116.1 -464.5 184.5 -445.3C252.8 -426.1 331.6 -411.8 362.7 -362.7C393.9 -313.6 377.4 -229.7 394.5 -163.4C411.6 -97.1 462.3 -48.6 513 0L0 0Z" fill="#ffd0d6"></path><path d="M0 -342C38.7 -325.8 77.4 -309.7 123 -296.9C168.6 -284.1 221.1 -274.6 241.8 -241.8C262.6 -209.1 251.6 -153.1 263 -108.9C274.4 -64.8 308.2 -32.4 342 0L0 0Z" fill="#ff6a89"></path><path d="M0 -171C19.3 -162.9 38.7 -154.8 61.5 -148.4C84.3 -142 110.5 -137.3 120.9 -120.9C131.3 -104.5 125.8 -76.6 131.5 -54.5C137.2 -32.4 154.1 -16.2 171 0L0 0Z" fill="#ff0066"></path></g></svg>