<svg id="visual" viewBox="0 0 1800 450" width="1800" height="450" xmlns="http://www.w3.org/2000/svg" xmlns:xlink="http://www.w3.org/1999/xlink" version="1.1"><path d="M0 60L27.3 65.2C54.7 70.3 109.3 80.7 163.8 80.7C218.3 80.7 272.7 70.3 327.2 67.3C381.7 64.3 436.3 68.7 491 73.2C545.7 77.7 600.3 82.3 654.8 81.7C709.3 81 763.7 75 818.2 74.2C872.7 73.3 927.3 77.7 981.8 77.7C1036.3 77.7 1090.7 73.3 1145.2 66.7C1199.7 60 1254.3 51 1309 56.2C1363.7 61.3 1418.3 80.7 1472.8 80.7C1527.3 80.7 1581.7 61.3 1636.2 50.8C1690.7 40.3 1745.3 38.7 1772.7 37.8L1800 37L1800 0L1772.7 0C1745.3 0 1690.7 0 1636.2 0C1581.7 0 1527.3 0 1472.8 0C1418.3 0 1363.7 0 1309 0C1254.3 0 1199.7 0 1145.2 0C1090.7 0 1036.3 0 981.8 0C927.3 0 872.7 0 818.2 0C763.7 0 709.3 0 654.8 0C600.3 0 545.7 0 491 0C436.3 0 381.7 0 327.2 0C272.7 0 218.3 0 163.8 0C109.3 0 54.7 0 27.3 0L0 0Z" fill="#ffc0cb"></path><path d="M0 118L27.3 132.3C54.7 146.7 109.3 175.3 163.8 194.8C218.3 214.3 272.7 224.7 327.2 214.8C381.7 205 436.3 175 491 172.8C545.7 170.7 600.3 196.3 654.8 200.8C709.3 205.3 763.7 188.7 818.2 176.7C872.7 164.7 927.3 157.3 981.8 160.3C1036.3 163.3 1090.7 176.7 1145.2 193.2C1199.7 209.7 1254.3 229.3 1309 238.3C1363.7 247.3 1418.3 245.7 1472.8 224.7C1527.3 203.7 1581.7 163.3 1636.2 152.2C1690.7 141 1745.3 159 1772.7 168L1800 177L1800 35L1772.7 35.8C1745.3 36.7 1690.7 38.3 1636.2 48.8C1581.7 59.3 1527.3 78.7 1472.8 78.7C1418.3 78.7 1363.7 59.3 1309 54.2C1254.3 49 1199.7 58 1145.2 64.7C1090.7 71.3 1036.3 75.7 981.8 75.7C927.3 75.7 872.7 71.3 818.2 72.2C763.7 73 709.3 79 654.8 79.7C600.3 80.3 545.7 75.7 491 71.2C436.3 66.7 381.7 62.3 327.2 65.3C272.7 68.3 218.3 78.7 163.8 78.7C109.3 78.7 54.7 68.3 27.3 63.2L0 58Z" fill="#ffd0d8"></path><path d="M0 217L27.3 226C54.7 235 109.3 253 163.8 268C218.3 283 272.7 295 327.2 292C381.7 289 436.3 271 491 269.5C545.7 268 600.3 283 654.8 281.5C709.3 280 763.7 262 818.2 256.8C872.7 251.7 927.3 259.3 981.8 269.2C1036.3 279 1090.7 291 1145.2 299.2C1199.7 307.3 1254.3 311.7 1309 308.7C1363.7 305.7 1418.3 295.3 1472.8 270.7C1527.3 246 1581.7 207 1636.2 204C1690.7 201 1745.3 234 1772.7 250.5L1800 267L1800 175L1772.7 166C1745.3 157 1690.7 139 1636.2 150.2C1581.7 161.3 1527.3 201.7 1472.8 222.7C1418.3 243.7 1363.7 245.3 1309 236.3C1254.3 227.3 1199.7 207.7 1145.2 191.2C1090.7 174.7 1036.3 161.3 981.8 158.3C927.3 155.3 872.7 162.7 818.2 174.7C763.7 186.7 709.3 203.3 654.8 198.8C600.3 194.3 545.7 168.7 491 170.8C436.3 173 381.7 203 327.2 212.8C272.7 222.7 218.3 212.3 163.8 192.8C109.3 173.3 54.7 144.7 27.3 130.3L0 116Z" fill="#ffe0e5"></path><path d="M0 379L27.3 380.5C54.7 382 109.3 385 163.8 392.5C218.3 400 272.7 412 327.2 411.3C381.7 410.7 436.3 397.3 491 394.3C545.7 391.3 600.3 398.7 654.8 400.8C709.3 403 763.7 400 818.2 402.3C872.7 404.7 927.3 412.3 981.8 412.3C1036.3 412.3 1090.7 404.7 1145.2 400.2C1199.7 395.7 1254.3 394.3 1309 397.3C1363.7 400.3 1418.3 407.7 1472.8 406.8C1527.3 406 1581.7 397 1636.2 395.5C1690.7 394 1745.3 400 1772.7 403L1800 406L1800 265L1772.7 248.5C1745.3 232 1690.7 199 1636.2 202C1581.7 205 1527.3 244 1472.8 268.7C1418.3 293.3 1363.7 303.7 1309 306.7C1254.3 309.7 1199.7 305.3 1145.2 297.2C1090.7 289 1036.3 277 981.8 267.2C927.3 257.3 872.7 249.7 818.2 254.8C763.7 260 709.3 278 654.8 279.5C600.3 281 545.7 266 491 267.5C436.3 269 381.7 287 327.2 290C272.7 293 218.3 281 163.8 266C109.3 251 54.7 233 27.3 224L0 215Z" fill="#ffeff2"></path><path d="M0 451L27.3 451C54.7 451 109.3 451 163.8 451C218.3 451 272.7 451 327.2 451C381.7 451 436.3 451 491 451C545.7 451 600.3 451 654.8 451C709.3 451 763.7 451 818.2 451C872.7 451 927.3 451 981.8 451C1036.3 451 1090.7 451 1145.2 451C1199.7 451 1254.3 451 1309 451C1363.7 451 1418.3 451 1472.8 451C1527.3 451 1581.7 451 1636.2 451C1690.7 451 1745.3 451 1772.7 451L1800 451L1800 404L1772.7 401C1745.3 398 1690.7 392 1636.2 393.5C1581.7 395 1527.3 404 1472.8 404.8C1418.3 405.7 1363.7 398.3 1309 395.3C1254.3 392.3 1199.7 393.7 1145.2 398.2C1090.7 402.7 1036.3 410.3 981.8 410.3C927.3 410.3 872.7 402.7 818.2 400.3C763.7 398 709.3 401 654.8 398.8C600.3 396.7 545.7 389.3 491 392.3C436.3 395.3 381.7 408.7 327.2 409.3C272.7 410 218.3 398 163.8 390.5C109.3 383 54.7 380 27.3 378.5L0 377Z" fill="#ffffff"></path></svg>