<svg id="visual" viewBox="0 0 900 600" width="900" height="600" xmlns="http://www.w3.org/2000/svg" xmlns:xlink="http://www.w3.org/1999/xlink" version="1.1"><rect x="0" y="0" width="900" height="600" fill="#FFFFFF"></rect><defs><linearGradient id="grad1_0" x1="33.3%" y1="0%" x2="100%" y2="100%"><stop offset="20%" stop-color="#ffffff" stop-opacity="1"></stop><stop offset="80%" stop-color="#ffffff" stop-opacity="1"></stop></linearGradient></defs><defs><linearGradient id="grad2_0" x1="0%" y1="0%" x2="66.7%" y2="100%"><stop offset="20%" stop-color="#ffffff" stop-opacity="1"></stop><stop offset="80%" stop-color="#ffffff" stop-opacity="1"></stop></linearGradient></defs><g transform="translate(900, 0)"><path d="M0 486.7C-62.1 478.9 -124.2 471 -186.3 449.7C-248.4 428.4 -310.5 393.5 -342.2 342.2C-374 290.9 -375.5 223.2 -394.5 163.4C-413.5 103.6 -450.1 51.8 -486.7 0L0 0Z" fill="#ffc0cb"></path></g><g transform="translate(0, 600)"><path d="M0 -486.7C46.1 -439.8 92.2 -392.9 156.1 -376.9C220.1 -361 301.9 -376 344.2 -344.2C386.5 -312.3 389.3 -233.6 406.5 -168.4C423.7 -103.2 455.2 -51.6 486.7 0L0 0Z" fill="#ffc0cb"></path></g></svg>