<svg id="visual" viewBox="0 0 1800 450" width="1800" height="450" xmlns="http://www.w3.org/2000/svg" xmlns:xlink="http://www.w3.org/1999/xlink" version="1.1"><path d="M0 60L27.3 55.5C54.7 51 109.3 42 163.8 38.2C218.3 34.3 272.7 35.7 327.2 39.3C381.7 43 436.3 49 491 51.3C545.7 53.7 600.3 52.3 654.8 56.2C709.3 60 763.7 69 818.2 69C872.7 69 927.3 60 981.8 53.2C1036.3 46.3 1090.7 41.7 1145.2 46.2C1199.7 50.7 1254.3 64.3 1309 68.2C1363.7 72 1418.3 66 1472.8 58.5C1527.3 51 1581.7 42 1636.2 36.7C1690.7 31.3 1745.3 29.7 1772.7 28.8L1800 28L1800 0L1772.7 0C1745.3 0 1690.7 0 1636.2 0C1581.7 0 1527.3 0 1472.8 0C1418.3 0 1363.7 0 1309 0C1254.3 0 1199.7 0 1145.2 0C1090.7 0 1036.3 0 981.8 0C927.3 0 872.7 0 818.2 0C763.7 0 709.3 0 654.8 0C600.3 0 545.7 0 491 0C436.3 0 381.7 0 327.2 0C272.7 0 218.3 0 163.8 0C109.3 0 54.7 0 27.3 0L0 0Z" fill="#ffc0cb"></path><path d="M0 150L27.3 144C54.7 138 109.3 126 163.8 122.2C218.3 118.3 272.7 122.7 327.2 125.7C381.7 128.7 436.3 130.3 491 132.7C545.7 135 600.3 138 654.8 146.2C709.3 154.3 763.7 167.7 818.2 169.2C872.7 170.7 927.3 160.3 981.8 154.3C1036.3 148.3 1090.7 146.7 1145.2 147.3C1199.7 148 1254.3 151 1309 154.8C1363.7 158.7 1418.3 163.3 1472.8 153.7C1527.3 144 1581.7 120 1636.2 113.2C1690.7 106.3 1745.3 116.7 1772.7 121.8L1800 127L1800 26L1772.7 26.8C1745.3 27.7 1690.7 29.3 1636.2 34.7C1581.7 40 1527.3 49 1472.8 56.5C1418.3 64 1363.7 70 1309 66.2C1254.3 62.3 1199.7 48.7 1145.2 44.2C1090.7 39.7 1036.3 44.3 981.8 51.2C927.3 58 872.7 67 818.2 67C763.7 67 709.3 58 654.8 54.2C600.3 50.3 545.7 51.7 491 49.3C436.3 47 381.7 41 327.2 37.3C272.7 33.7 218.3 32.3 163.8 36.2C109.3 40 54.7 49 27.3 53.5L0 58Z" fill="#ffd0d8"></path><path d="M0 199L27.3 191.5C54.7 184 109.3 169 163.8 171.3C218.3 173.7 272.7 193.3 327.2 195.7C381.7 198 436.3 183 491 186.7C545.7 190.3 600.3 212.7 654.8 220.2C709.3 227.7 763.7 220.3 818.2 212.8C872.7 205.3 927.3 197.7 981.8 200.7C1036.3 203.7 1090.7 217.3 1145.2 225.7C1199.7 234 1254.3 237 1309 239.2C1363.7 241.3 1418.3 242.7 1472.8 230.7C1527.3 218.7 1581.7 193.3 1636.2 183.7C1690.7 174 1745.3 180 1772.7 183L1800 186L1800 125L1772.7 119.8C1745.3 114.7 1690.7 104.3 1636.2 111.2C1581.7 118 1527.3 142 1472.8 151.7C1418.3 161.3 1363.7 156.7 1309 152.8C1254.3 149 1199.7 146 1145.2 145.3C1090.7 144.7 1036.3 146.3 981.8 152.3C927.3 158.3 872.7 168.7 818.2 167.2C763.7 165.7 709.3 152.3 654.8 144.2C600.3 136 545.7 133 491 130.7C436.3 128.3 381.7 126.7 327.2 123.7C272.7 120.7 218.3 116.3 163.8 120.2C109.3 124 54.7 136 27.3 142L0 148Z" fill="#ffe0e5"></path><path d="M0 285L27.3 282.7C54.7 280.3 109.3 275.7 163.8 274.2C218.3 272.7 272.7 274.3 327.2 280.3C381.7 286.3 436.3 296.7 491 301.8C545.7 307 600.3 307 654.8 309.3C709.3 311.7 763.7 316.3 818.2 317.2C872.7 318 927.3 315 981.8 317.2C1036.3 319.3 1090.7 326.7 1145.2 328.2C1199.7 329.7 1254.3 325.3 1309 331.3C1363.7 337.3 1418.3 353.7 1472.8 340.8C1527.3 328 1581.7 286 1636.2 270.3C1690.7 254.7 1745.3 265.3 1772.7 270.7L1800 276L1800 184L1772.7 181C1745.3 178 1690.7 172 1636.2 181.7C1581.7 191.3 1527.3 216.7 1472.8 228.7C1418.3 240.7 1363.7 239.3 1309 237.2C1254.3 235 1199.7 232 1145.2 223.7C1090.7 215.3 1036.3 201.7 981.8 198.7C927.3 195.7 872.7 203.3 818.2 210.8C763.7 218.3 709.3 225.7 654.8 218.2C600.3 210.7 545.7 188.3 491 184.7C436.3 181 381.7 196 327.2 193.7C272.7 191.3 218.3 171.7 163.8 169.3C109.3 167 54.7 182 27.3 189.5L0 197Z" fill="#ffeff2"></path><path d="M0 451L27.3 451C54.7 451 109.3 451 163.8 451C218.3 451 272.7 451 327.2 451C381.7 451 436.3 451 491 451C545.7 451 600.3 451 654.8 451C709.3 451 763.7 451 818.2 451C872.7 451 927.3 451 981.8 451C1036.3 451 1090.7 451 1145.2 451C1199.7 451 1254.3 451 1309 451C1363.7 451 1418.3 451 1472.8 451C1527.3 451 1581.7 451 1636.2 451C1690.7 451 1745.3 451 1772.7 451L1800 451L1800 274L1772.7 268.7C1745.3 263.3 1690.7 252.7 1636.2 268.3C1581.7 284 1527.3 326 1472.8 338.8C1418.3 351.7 1363.7 335.3 1309 329.3C1254.3 323.3 1199.7 327.7 1145.2 326.2C1090.7 324.7 1036.3 317.3 981.8 315.2C927.3 313 872.7 316 818.2 315.2C763.7 314.3 709.3 309.7 654.8 307.3C600.3 305 545.7 305 491 299.8C436.3 294.7 381.7 284.3 327.2 278.3C272.7 272.3 218.3 270.7 163.8 272.2C109.3 273.7 54.7 278.3 27.3 280.7L0 283Z" fill="#ffffff"></path></svg>